<svg width="1674" height="255" viewBox="0 0 1674 255" fill="none" xmlns="http://www.w3.org/2000/svg">
<path d="M0.750001 7.44999C9.15 5.58332 18.3667 4.18332 28.4 3.24998C38.4333 2.08332 48.4667 1.49999 58.5 1.49999C69.2333 1.49999 79.7333 2.54999 90 4.64999C100.5 6.51666 109.833 10.3667 118 16.2C126.167 22.0333 132.817 30.3167 137.95 41.05C143.083 51.55 145.65 65.3167 145.65 82.35C145.65 97.75 143.433 110.817 139 121.55C134.8 132.283 129.083 141.033 121.85 147.8C114.617 154.567 106.217 159.467 96.65 162.5C87.3167 165.533 77.6333 167.05 67.6 167.05C66.6667 167.05 65.15 167.05 63.05 167.05C60.95 167.05 58.7333 167.05 56.4 167.05C54.0667 166.817 51.7333 166.583 49.4 166.35C47.3 166.117 45.7833 165.883 44.85 165.65V250H0.750001V7.44999ZM44.85 126.1C46.25 126.567 48.8167 127.033 52.55 127.5C56.5167 127.733 59.2 127.85 60.6 127.85C65.7333 127.85 70.6333 127.15 75.3 125.75C79.9667 124.35 84.05 122.017 87.55 118.75C91.2833 115.25 94.2 110.583 96.3 104.75C98.4 98.6833 99.45 91.1 99.45 82C99.45 74.3 98.4 67.7667 96.3 62.4C94.4333 57.0333 91.75 52.8333 88.25 49.8C84.9833 46.5333 81.1333 44.2 76.7 42.8C72.2667 41.4 67.6 40.7 62.7 40.7C55.4667 40.7 49.5167 41.2833 44.85 42.45V126.1ZM159.213 127.5C159.213 85.9667 166.329 54.35 180.563 32.65C194.796 10.95 216.496 0.0999838 245.663 0.0999838C260.829 0.0999838 273.896 3.13332 284.863 9.19999C295.829 15.0333 304.813 23.55 311.813 34.75C318.813 45.7167 323.946 59.1333 327.213 75C330.713 90.6333 332.463 108.133 332.463 127.5C332.463 169.033 325.113 200.65 310.413 222.35C295.946 244.05 274.363 254.9 245.663 254.9C230.263 254.9 217.079 251.983 206.113 246.15C195.379 240.083 186.513 231.567 179.513 220.6C172.513 209.4 167.379 195.983 164.113 180.35C160.846 164.483 159.213 146.867 159.213 127.5ZM205.413 127.5C205.413 139.867 206.113 151.417 207.513 162.15C208.913 172.65 211.246 181.75 214.513 189.45C217.779 197.15 221.863 203.217 226.763 207.65C231.896 212.083 238.196 214.3 245.663 214.3C259.196 214.3 269.346 207.417 276.113 193.65C282.879 179.883 286.263 157.833 286.263 127.5C286.263 115.6 285.563 104.4 284.163 93.9C282.763 83.1667 280.429 73.95 277.163 66.25C274.129 58.3167 270.046 52.1333 264.913 47.7C259.779 43.0333 253.363 40.7 245.663 40.7C218.829 40.7 205.413 69.6333 205.413 127.5ZM343.034 209.4L424.934 59.95L439.634 45.6H343.034V4.99998H484.084V45.6L401.834 196.1L387.484 209.4H484.084V250H343.034V209.4ZM561.193 129.6L545.093 86.55H543.343L548.943 128.9V250H507.293V3.24998H541.243L611.593 126.45L626.643 168.8H628.743L623.143 127.15V4.99998H664.793V251.75H630.843L561.193 129.6ZM795.357 194.7H737.607L723.257 250H679.507L750.557 3.24998H785.207L856.607 250H810.407L795.357 194.7ZM747.057 158.3H787.657L773.657 101.25L768.057 62.75H766.657L760.707 101.6L747.057 158.3ZM895.448 4.99998H939.548V183.15C939.548 193.883 938.615 203.683 936.748 212.55C935.115 221.183 932.315 228.65 928.348 234.95C924.382 241.017 919.132 245.8 912.598 249.3C906.065 252.567 897.898 254.2 888.098 254.2C881.332 254.2 874.565 253.5 867.798 252.1C861.265 250.7 855.315 248.717 849.948 246.15L860.098 209.05C864.998 212.083 870.715 213.6 877.248 213.6C885.415 213.6 890.432 210.217 892.298 203.45C894.398 196.45 895.448 186.533 895.448 173.7V4.99998ZM1201.4 123.65L1206.3 76.75H1204.55L1191.6 118.75L1151.7 204.85H1137L1094.65 118.4L1081.7 76.05H1079.6L1086.25 123.3V250H1044.6V4.99998H1086.95L1138.05 111.05L1146.45 141.5H1147.85L1155.9 110.35L1203.85 4.99998H1245.5V250H1201.4V123.65ZM1330.92 129.6L1314.82 86.55H1313.07L1318.67 128.9V250H1277.02V3.24998H1310.97L1381.32 126.45L1396.37 168.8H1398.47L1392.87 127.15V4.99998H1434.52V251.75H1400.57L1330.92 129.6ZM1469.88 4.99998H1513.98V250H1469.88V4.99998ZM1549.43 4.99998H1671.93V45.6H1593.53V105.8H1664.58V146.4H1593.53V209.4H1673.33V250H1549.43V4.99998Z" fill="#E3DAE7"/>
</svg>
