<svg width="1920" height="506" viewBox="0 0 1920 506" fill="none" xmlns="http://www.w3.org/2000/svg">
<path d="M172.55 209.65L177.45 162.75H175.7L162.75 204.75L122.85 290.85H108.15L65.8 204.4L52.85 162.05H50.75L57.4 209.3V336H15.75V91H58.1L109.2 197.05L117.6 227.5H119L127.05 196.35L175 91H216.65V336H172.55V209.65ZM242.572 213.5C242.572 171.967 249.689 140.35 263.922 118.65C278.155 96.95 299.855 86.1 329.022 86.1C344.189 86.1 357.255 89.1333 368.222 95.2C379.189 101.033 388.172 109.55 395.172 120.75C402.172 131.717 407.305 145.133 410.572 161C414.072 176.633 415.822 194.133 415.822 213.5C415.822 255.033 408.472 286.65 393.772 308.35C379.305 330.05 357.722 340.9 329.022 340.9C313.622 340.9 300.439 337.983 289.472 332.15C278.739 326.083 269.872 317.567 262.872 306.6C255.872 295.4 250.739 281.983 247.472 266.35C244.205 250.483 242.572 232.867 242.572 213.5ZM288.772 213.5C288.772 225.867 289.472 237.417 290.872 248.15C292.272 258.65 294.605 267.75 297.872 275.45C301.139 283.15 305.222 289.217 310.122 293.65C315.255 298.083 321.555 300.3 329.022 300.3C342.555 300.3 352.705 293.417 359.472 279.65C366.239 265.883 369.622 243.833 369.622 213.5C369.622 201.6 368.922 190.4 367.522 179.9C366.122 169.167 363.789 159.95 360.522 152.25C357.489 144.317 353.405 138.133 348.272 133.7C343.139 129.033 336.722 126.7 329.022 126.7C302.189 126.7 288.772 155.633 288.772 213.5ZM458.593 91H502.693V269.15C502.693 279.883 501.76 289.683 499.893 298.55C498.26 307.183 495.46 314.65 491.493 320.95C487.526 327.017 482.276 331.8 475.743 335.3C469.21 338.567 461.043 340.2 451.243 340.2C444.476 340.2 437.71 339.5 430.943 338.1C424.41 336.7 418.46 334.717 413.093 332.15L423.243 295.05C428.143 298.083 433.86 299.6 440.393 299.6C448.56 299.6 453.576 296.217 455.443 289.45C457.543 282.45 458.593 272.533 458.593 259.7V91ZM535.965 91H658.465V131.6H580.065V191.8H651.115V232.4H580.065V295.4H659.865V336H535.965V91ZM747.682 295.4L829.582 145.95L844.282 131.6H747.682V91H888.732V131.6L806.482 282.1L792.132 295.4H888.732V336H747.682V295.4ZM1003.47 280.7H945.722L931.372 336H887.622L958.672 89.25H993.322L1064.72 336H1018.52L1003.47 280.7ZM955.172 244.3H995.772L981.772 187.25L976.172 148.75H974.772L968.822 187.6L955.172 244.3ZM1083.61 91H1127.71V336H1083.61V91ZM1217.06 215.6L1200.96 172.55H1199.21L1204.81 214.9V336H1163.16V89.25H1197.11L1267.46 212.45L1282.51 254.8H1284.61L1279.01 213.15V91H1320.66V337.75H1286.71L1217.06 215.6ZM1499.18 131.6H1441.43V336H1397.33V131.6H1339.23V91H1499.18V131.6ZM1517.61 91H1640.11V131.6H1561.71V191.8H1632.76V232.4H1561.71V295.4H1641.51V336H1517.61V91ZM1668 93.45C1677.56 91.35 1687.83 89.8333 1698.8 88.9C1709.76 87.9667 1719.21 87.5 1727.15 87.5C1737.18 87.5 1746.98 88.55 1756.55 90.65C1766.11 92.5167 1774.51 96.1333 1781.75 101.5C1789.21 106.633 1795.16 113.75 1799.6 122.85C1804.26 131.717 1806.6 143.033 1806.6 156.8C1806.6 176.633 1802.86 192.85 1795.4 205.45C1788.16 217.817 1778.13 226.333 1765.3 231L1779.3 242.2L1824.45 336H1773.7L1731 239.4L1712.1 234.85V336H1668V93.45ZM1712.1 204.75H1727.15C1738.11 204.75 1746.4 201.483 1752 194.95C1757.6 188.183 1760.4 177.8 1760.4 163.8C1760.4 153.3 1758.06 144.783 1753.4 138.25C1748.73 131.483 1741.38 128.1 1731.35 128.1C1727.61 128.1 1724 128.217 1720.5 128.45C1717 128.683 1714.2 129.15 1712.1 129.85V204.75ZM1844.02 91H1966.52V131.6H1888.12V191.8H1959.17V232.4H1888.12V295.4H1967.92V336H1844.02V91ZM2080.16 273C2080.16 265.533 2077.95 259.233 2073.51 254.1C2069.08 248.733 2063.48 243.717 2056.71 239.05C2050.18 234.383 2042.95 229.6 2035.01 224.7C2027.31 219.8 2020.08 214.083 2013.31 207.55C2006.78 201.017 2001.3 193.317 1996.86 184.45C1992.43 175.583 1990.21 164.733 1990.21 151.9C1990.21 140 1991.96 129.967 1995.46 121.8C1999.2 113.4 2004.21 106.633 2010.51 101.5C2016.81 96.1333 2024.28 92.2833 2032.91 89.95C2041.55 87.3833 2050.76 86.1 2060.56 86.1C2072.46 86.1 2083.55 87.2666 2093.81 89.6C2104.08 91.9333 2112.6 95.0833 2119.36 99.05L2105.71 137.9C2101.75 135.1 2095.8 132.533 2087.86 130.2C2080.16 127.867 2071.76 126.7 2062.66 126.7C2053.56 126.7 2046.56 128.567 2041.66 132.3C2036.76 136.033 2034.31 141.517 2034.31 148.75C2034.31 155.283 2036.53 161.117 2040.96 166.25C2045.4 171.15 2050.88 175.933 2057.41 180.6C2064.18 185.267 2071.41 190.167 2079.11 195.3C2087.05 200.2 2094.28 206.033 2100.81 212.8C2107.58 219.333 2113.18 227.15 2117.61 236.25C2122.05 245.117 2124.26 255.733 2124.26 268.1C2124.26 280.467 2122.4 291.2 2118.66 300.3C2115.16 309.4 2110.03 316.983 2103.26 323.05C2096.73 328.883 2088.8 333.317 2079.46 336.35C2070.13 339.383 2059.75 340.9 2048.31 340.9C2033.85 340.9 2021.13 339.5 2010.16 336.7C1999.43 333.9 1991.15 330.75 1985.31 327.25L1999.66 287.7C2004.33 290.5 2010.75 293.3 2018.91 296.1C2027.08 298.9 2035.83 300.3 2045.16 300.3C2068.5 300.3 2080.16 291.2 2080.16 273ZM2142.62 213.5C2142.62 171.967 2149.74 140.35 2163.97 118.65C2178.2 96.95 2199.9 86.1 2229.07 86.1C2244.24 86.1 2257.3 89.1333 2268.27 95.2C2279.24 101.033 2288.22 109.55 2295.22 120.75C2302.22 131.717 2307.35 145.133 2310.62 161C2314.12 176.633 2315.87 194.133 2315.87 213.5C2315.87 255.033 2308.52 286.65 2293.82 308.35C2279.35 330.05 2257.77 340.9 2229.07 340.9C2213.67 340.9 2200.49 337.983 2189.52 332.15C2178.79 326.083 2169.92 317.567 2162.92 306.6C2155.92 295.4 2150.79 281.983 2147.52 266.35C2144.25 250.483 2142.62 232.867 2142.62 213.5ZM2188.82 213.5C2188.82 225.867 2189.52 237.417 2190.92 248.15C2192.32 258.65 2194.65 267.75 2197.92 275.45C2201.19 283.15 2205.27 289.217 2210.17 293.65C2215.3 298.083 2221.6 300.3 2229.07 300.3C2242.6 300.3 2252.75 293.417 2259.52 279.65C2266.29 265.883 2269.67 243.833 2269.67 213.5C2269.67 201.6 2268.97 190.4 2267.57 179.9C2266.17 169.167 2263.84 159.95 2260.57 152.25C2257.54 144.317 2253.45 138.133 2248.32 133.7C2243.19 129.033 2236.77 126.7 2229.07 126.7C2202.24 126.7 2188.82 155.633 2188.82 213.5ZM2389.13 225.75L2392.63 269.85H2394.03L2397.88 225.05L2430.78 91H2461.58L2493.43 225.75L2497.28 269.85H2498.68L2502.53 225.05L2524.23 91H2569.03L2514.08 337.75H2482.93L2448.63 202.65L2444.08 164.5H2442.33L2438.13 203L2403.83 337.75H2371.28L2316.68 91H2365.33L2389.13 225.75ZM2669.73 280.7H2611.98L2597.63 336H2553.88L2624.93 89.25H2659.58L2730.98 336H2684.78L2669.73 280.7ZM2621.43 244.3H2662.03L2648.03 187.25L2642.43 148.75H2641.03L2635.08 187.6L2621.43 244.3ZM2799.92 215.6L2783.82 172.55H2782.07L2787.67 214.9V336H2746.02V89.25H2779.97L2850.32 212.45L2865.37 254.8H2867.47L2861.87 213.15V91H2903.52V337.75H2869.57L2799.92 215.6ZM2938.89 91H2982.99V336H2938.89V91ZM3117.49 280.7H3059.74L3045.39 336H3001.64L3072.69 89.25H3107.34L3178.74 336H3132.54L3117.49 280.7ZM3069.19 244.3H3109.79L3095.79 187.25L3090.19 148.75H3088.79L3082.84 187.6L3069.19 244.3Z" fill="#E3DAE7"/>
</svg>
