<svg width="3243" height="716" viewBox="0 0 3243 716" fill="none" xmlns="http://www.w3.org/2000/svg">
<path d="M37.75 93.45C46.15 91.5833 55.3667 90.1833 65.4 89.25C75.4333 88.0833 85.4667 87.5 95.5 87.5C106.233 87.5 116.733 88.55 127 90.65C137.5 92.5167 146.833 96.3667 155 102.2C163.167 108.033 169.817 116.317 174.95 127.05C180.083 137.55 182.65 151.317 182.65 168.35C182.65 183.75 180.433 196.817 176 207.55C171.8 218.283 166.083 227.033 158.85 233.8C151.617 240.567 143.217 245.467 133.65 248.5C124.317 251.533 114.633 253.05 104.6 253.05C103.667 253.05 102.15 253.05 100.05 253.05C97.95 253.05 95.7333 253.05 93.4 253.05C91.0667 252.817 88.7333 252.583 86.4 252.35C84.3 252.117 82.7833 251.883 81.85 251.65V336H37.75V93.45ZM81.85 212.1C83.25 212.567 85.8167 213.033 89.55 213.5C93.5167 213.733 96.2 213.85 97.6 213.85C102.733 213.85 107.633 213.15 112.3 211.75C116.967 210.35 121.05 208.017 124.55 204.75C128.283 201.25 131.2 196.583 133.3 190.75C135.4 184.683 136.45 177.1 136.45 168C136.45 160.3 135.4 153.767 133.3 148.4C131.433 143.033 128.75 138.833 125.25 135.8C121.983 132.533 118.133 130.2 113.7 128.8C109.267 127.4 104.6 126.7 99.7 126.7C92.4667 126.7 86.5167 127.283 81.85 128.45V212.1ZM204.547 93.45C214.114 91.35 224.38 89.8333 235.347 88.9C246.314 87.9667 255.764 87.5 263.697 87.5C273.73 87.5 283.53 88.55 293.097 90.65C302.664 92.5167 311.064 96.1333 318.297 101.5C325.764 106.633 331.714 113.75 336.147 122.85C340.814 131.717 343.147 143.033 343.147 156.8C343.147 176.633 339.414 192.85 331.947 205.45C324.714 217.817 314.68 226.333 301.847 231L315.847 242.2L360.997 336H310.247L267.547 239.4L248.647 234.85V336H204.547V93.45ZM248.647 204.75H263.697C274.664 204.75 282.947 201.483 288.547 194.95C294.147 188.183 296.947 177.8 296.947 163.8C296.947 153.3 294.614 144.783 289.947 138.25C285.28 131.483 277.93 128.1 267.897 128.1C264.164 128.1 260.547 128.217 257.047 128.45C253.547 128.683 250.747 129.15 248.647 129.85V204.75ZM365.744 213.5C365.744 171.967 372.86 140.35 387.094 118.65C401.327 96.95 423.027 86.1 452.194 86.1C467.36 86.1 480.427 89.1333 491.394 95.2C502.36 101.033 511.344 109.55 518.344 120.75C525.344 131.717 530.477 145.133 533.744 161C537.244 176.633 538.994 194.133 538.994 213.5C538.994 255.033 531.644 286.65 516.944 308.35C502.477 330.05 480.894 340.9 452.194 340.9C436.794 340.9 423.61 337.983 412.644 332.15C401.91 326.083 393.044 317.567 386.044 306.6C379.044 295.4 373.91 281.983 370.644 266.35C367.377 250.483 365.744 232.867 365.744 213.5ZM411.944 213.5C411.944 225.867 412.644 237.417 414.044 248.15C415.444 258.65 417.777 267.75 421.044 275.45C424.31 283.15 428.394 289.217 433.294 293.65C438.427 298.083 444.727 300.3 452.194 300.3C465.727 300.3 475.877 293.417 482.644 279.65C489.41 265.883 492.794 243.833 492.794 213.5C492.794 201.6 492.094 190.4 490.694 179.9C489.294 169.167 486.96 159.95 483.694 152.25C480.66 144.317 476.577 138.133 471.444 133.7C466.31 129.033 459.894 126.7 452.194 126.7C425.36 126.7 411.944 155.633 411.944 213.5ZM639.001 209.3H714.601V317.8C705.967 325.967 695.817 331.917 684.151 335.65C672.717 339.15 661.284 340.9 649.851 340.9C636.084 340.9 623.601 338.45 612.401 333.55C601.201 328.65 591.634 321.067 583.701 310.8C576.001 300.3 569.934 287.117 565.501 271.25C561.301 255.15 559.201 235.9 559.201 213.5C559.201 190.167 561.767 170.45 566.901 154.35C572.034 138.25 578.801 125.183 587.201 115.15C595.834 104.883 605.751 97.5333 616.951 93.1C628.384 88.4333 640.401 86.1 653.001 86.1C664.201 86.1 674.351 87.15 683.451 89.25C692.784 91.1167 700.484 93.3333 706.551 95.9L697.451 134.05C692.784 131.95 687.301 130.2 681.001 128.8C674.934 127.4 667.467 126.7 658.601 126.7C650.434 126.7 642.967 128.333 636.201 131.6C629.667 134.867 624.067 140 619.401 147C614.967 154 611.467 163.1 608.901 174.3C606.567 185.267 605.401 198.45 605.401 213.85C605.401 243.483 609.834 265.3 618.701 279.3C627.801 293.3 639.701 300.3 654.401 300.3C659.067 300.3 663.501 299.6 667.701 298.2C672.134 296.8 675.984 294.583 679.251 291.55V241.5L639.001 235.9V209.3ZM740.484 93.45C750.051 91.35 760.318 89.8333 771.284 88.9C782.251 87.9667 791.701 87.5 799.634 87.5C809.668 87.5 819.468 88.55 829.034 90.65C838.601 92.5167 847.001 96.1333 854.234 101.5C861.701 106.633 867.651 113.75 872.084 122.85C876.751 131.717 879.084 143.033 879.084 156.8C879.084 176.633 875.351 192.85 867.884 205.45C860.651 217.817 850.618 226.333 837.784 231L851.784 242.2L896.934 336H846.184L803.484 239.4L784.584 234.85V336H740.484V93.45ZM784.584 204.75H799.634C810.601 204.75 818.884 201.483 824.484 194.95C830.084 188.183 832.884 177.8 832.884 163.8C832.884 153.3 830.551 144.783 825.884 138.25C821.218 131.483 813.868 128.1 803.834 128.1C800.101 128.1 796.484 128.217 792.984 128.45C789.484 128.683 786.684 129.15 784.584 129.85V204.75ZM1004.28 280.7H946.53L932.18 336H888.43L959.48 89.25H994.13L1065.53 336H1019.33L1004.28 280.7ZM955.98 244.3H996.58L982.58 187.25L976.98 148.75H975.58L969.63 187.6L955.98 244.3ZM1237.37 209.65L1242.27 162.75H1240.52L1227.57 204.75L1187.67 290.85H1172.97L1130.62 204.4L1117.67 162.05H1115.57L1122.22 209.3V336H1080.57V91H1122.92L1174.02 197.05L1182.42 227.5H1183.82L1191.87 196.35L1239.82 91H1281.47V336H1237.37V209.65ZM1307.39 213.5C1307.39 171.967 1314.51 140.35 1328.74 118.65C1342.98 96.95 1364.68 86.1 1393.84 86.1C1409.01 86.1 1422.08 89.1333 1433.04 95.2C1444.01 101.033 1452.99 109.55 1459.99 120.75C1466.99 131.717 1472.13 145.133 1475.39 161C1478.89 176.633 1480.64 194.133 1480.64 213.5C1480.64 255.033 1473.29 286.65 1458.59 308.35C1444.13 330.05 1422.54 340.9 1393.84 340.9C1378.44 340.9 1365.26 337.983 1354.29 332.15C1343.56 326.083 1334.69 317.567 1327.69 306.6C1320.69 295.4 1315.56 281.983 1312.29 266.35C1309.03 250.483 1307.39 232.867 1307.39 213.5ZM1353.59 213.5C1353.59 225.867 1354.29 237.417 1355.69 248.15C1357.09 258.65 1359.43 267.75 1362.69 275.45C1365.96 283.15 1370.04 289.217 1374.94 293.65C1380.08 298.083 1386.38 300.3 1393.84 300.3C1407.38 300.3 1417.53 293.417 1424.29 279.65C1431.06 265.883 1434.44 243.833 1434.44 213.5C1434.44 201.6 1433.74 190.4 1432.34 179.9C1430.94 169.167 1428.61 159.95 1425.34 152.25C1422.31 144.317 1418.23 138.133 1413.09 133.7C1407.96 129.033 1401.54 126.7 1393.84 126.7C1367.01 126.7 1353.59 155.633 1353.59 213.5ZM1553.91 225.75L1557.41 269.85H1558.81L1562.66 225.05L1595.56 91H1626.36L1658.21 225.75L1662.06 269.85H1663.46L1667.31 225.05L1689.01 91H1733.81L1678.86 337.75H1647.71L1613.41 202.65L1608.86 164.5H1607.11L1602.91 203L1568.61 337.75H1536.06L1481.46 91H1530.11L1553.91 225.75ZM1834.51 280.7H1776.76L1762.41 336H1718.66L1789.71 89.25H1824.36L1895.76 336H1849.56L1834.51 280.7ZM1786.21 244.3H1826.81L1812.81 187.25L1807.21 148.75H1805.81L1799.86 187.6L1786.21 244.3ZM1964.7 215.6L1948.6 172.55H1946.85L1952.45 214.9V336H1910.8V89.25H1944.75L2015.1 212.45L2030.15 254.8H2032.25L2026.65 213.15V91H2068.3V337.75H2034.35L1964.7 215.6ZM2103.66 91H2147.76V336H2103.66V91ZM2183.21 91H2305.71V131.6H2227.31V191.8H2298.36V232.4H2227.31V295.4H2307.11V336H2183.21V91Z" fill="#E3DAE7"/>
<path d="M116.8 543.7H59.05L44.7 599H0.95L72 352.25H106.65L178.05 599H131.85L116.8 543.7ZM68.5 507.3H109.1L95.1 450.25L89.5 411.75H88.1L82.15 450.6L68.5 507.3ZM193.092 356.45C201.492 354.583 210.708 353.183 220.742 352.25C230.775 351.083 240.808 350.5 250.842 350.5C261.575 350.5 272.075 351.55 282.342 353.65C292.842 355.517 302.175 359.367 310.342 365.2C318.508 371.033 325.158 379.317 330.292 390.05C335.425 400.55 337.992 414.317 337.992 431.35C337.992 446.75 335.775 459.817 331.342 470.55C327.142 481.283 321.425 490.033 314.192 496.8C306.958 503.567 298.558 508.467 288.992 511.5C279.658 514.533 269.975 516.05 259.942 516.05C259.008 516.05 257.492 516.05 255.392 516.05C253.292 516.05 251.075 516.05 248.742 516.05C246.408 515.817 244.075 515.583 241.742 515.35C239.642 515.117 238.125 514.883 237.192 514.65V599H193.092V356.45ZM237.192 475.1C238.592 475.567 241.158 476.033 244.892 476.5C248.858 476.733 251.542 476.85 252.942 476.85C258.075 476.85 262.975 476.15 267.642 474.75C272.308 473.35 276.392 471.017 279.892 467.75C283.625 464.25 286.542 459.583 288.642 453.75C290.742 447.683 291.792 440.1 291.792 431C291.792 423.3 290.742 416.767 288.642 411.4C286.775 406.033 284.092 401.833 280.592 398.8C277.325 395.533 273.475 393.2 269.042 391.8C264.608 390.4 259.942 389.7 255.042 389.7C247.808 389.7 241.858 390.283 237.192 391.45V475.1ZM490.089 599H359.889V354H403.989V558.4H490.089V599ZM512.079 354H556.179V599H512.079V354ZM645.177 494H635.727V599H591.627V354H635.727V462.85L644.477 458.65L695.927 354H745.627L689.627 457.25L673.177 470.2L689.977 483.5L754.727 599H700.827L645.177 494ZM863.284 543.7H805.534L791.184 599H747.434L818.484 352.25H853.134L924.534 599H878.334L863.284 543.7ZM814.984 507.3H855.584L841.584 450.25L835.984 411.75H834.584L828.634 450.6L814.984 507.3ZM1069.3 589.2C1063.23 594.333 1055.06 598.067 1044.8 600.4C1034.76 602.733 1024.73 603.9 1014.7 603.9C1002.1 603.9 990.314 601.8 979.348 597.6C968.614 593.167 959.164 585.933 950.998 575.9C942.831 565.867 936.414 552.683 931.748 536.35C927.081 520.017 924.748 499.95 924.748 476.15C924.748 451.417 927.314 430.883 932.448 414.55C937.814 398.217 944.698 385.267 953.098 375.7C961.731 365.9 971.531 359.017 982.498 355.05C993.464 351.083 1004.55 349.1 1015.75 349.1C1027.18 349.1 1037.1 350.033 1045.5 351.9C1054.13 353.767 1061.13 355.867 1066.5 358.2L1057.75 397.05C1053.31 394.717 1048.06 392.967 1042 391.8C1036.16 390.4 1029.16 389.7 1021 389.7C1004.9 389.7 992.531 396.7 983.898 410.7C975.264 424.7 970.948 446.633 970.948 476.5C970.948 489.333 971.881 501.117 973.748 511.85C975.848 522.35 978.998 531.45 983.198 539.15C987.631 546.85 993.114 552.8 999.648 557C1006.41 561.2 1014.46 563.3 1023.8 563.3C1031.96 563.3 1038.96 562.25 1044.8 560.15C1050.63 557.817 1055.88 555.133 1060.55 552.1L1069.3 589.2ZM1114.11 354H1158.21V532.15C1158.21 542.883 1157.28 552.683 1155.41 561.55C1153.78 570.183 1150.98 577.65 1147.01 583.95C1143.04 590.017 1137.79 594.8 1131.26 598.3C1124.73 601.567 1116.56 603.2 1106.76 603.2C1099.99 603.2 1093.23 602.5 1086.46 601.1C1079.93 599.7 1073.98 597.717 1068.61 595.15L1078.76 558.05C1083.66 561.083 1089.38 562.6 1095.91 562.6C1104.08 562.6 1109.09 559.217 1110.96 552.45C1113.06 545.45 1114.11 535.533 1114.11 522.7V354ZM1191.48 354H1313.98V394.6H1235.58V454.8H1306.63V495.4H1235.58V558.4H1315.38V599H1191.48V354ZM1417.5 354H1461.6V599H1417.5V354ZM1550.95 478.6L1534.85 435.55H1533.1L1538.7 477.9V599H1497.05V352.25H1531L1601.35 475.45L1616.4 517.8H1618.5L1612.9 476.15V354H1654.55V600.75H1620.6L1550.95 478.6ZM1833.06 394.6H1775.31V599H1731.21V394.6H1673.11V354H1833.06V394.6ZM1851.49 354H1973.99V394.6H1895.59V454.8H1966.64V495.4H1895.59V558.4H1975.39V599H1851.49V354ZM2001.88 356.45C2011.45 354.35 2021.71 352.833 2032.68 351.9C2043.65 350.967 2053.1 350.5 2061.03 350.5C2071.06 350.5 2080.86 351.55 2090.43 353.65C2100 355.517 2108.4 359.133 2115.63 364.5C2123.1 369.633 2129.05 376.75 2133.48 385.85C2138.15 394.717 2140.48 406.033 2140.48 419.8C2140.48 439.633 2136.75 455.85 2129.28 468.45C2122.05 480.817 2112.01 489.333 2099.18 494L2113.18 505.2L2158.33 599H2107.58L2064.88 502.4L2045.98 497.85V599H2001.88V356.45ZM2045.98 467.75H2061.03C2072 467.75 2080.28 464.483 2085.88 457.95C2091.48 451.183 2094.28 440.8 2094.28 426.8C2094.28 416.3 2091.95 407.783 2087.28 401.25C2082.61 394.483 2075.26 391.1 2065.23 391.1C2061.5 391.1 2057.88 391.217 2054.38 391.45C2050.88 391.683 2048.08 392.15 2045.98 392.85V467.75ZM2231.81 478.6L2215.71 435.55H2213.96L2219.56 477.9V599H2177.91V352.25H2211.86L2282.21 475.45L2297.26 517.8H2299.36L2293.76 476.15V354H2335.41V600.75H2301.46L2231.81 478.6ZM2366.92 354H2489.42V394.6H2411.02V454.8H2482.07V495.4H2411.02V558.4H2490.82V599H2366.92V354ZM2664.31 394.6H2606.56V599H2562.46V394.6H2504.36V354H2664.31V394.6ZM2666.54 476.5C2666.54 434.967 2673.66 403.35 2687.89 381.65C2702.13 359.95 2723.83 349.1 2752.99 349.1C2768.16 349.1 2781.23 352.133 2792.19 358.2C2803.16 364.033 2812.14 372.55 2819.14 383.75C2826.14 394.717 2831.28 408.133 2834.54 424C2838.04 439.633 2839.79 457.133 2839.79 476.5C2839.79 518.033 2832.44 549.65 2817.74 571.35C2803.28 593.05 2781.69 603.9 2752.99 603.9C2737.59 603.9 2724.41 600.983 2713.44 595.15C2702.71 589.083 2693.84 580.567 2686.84 569.6C2679.84 558.4 2674.71 544.983 2671.44 529.35C2668.18 513.483 2666.54 495.867 2666.54 476.5ZM2712.74 476.5C2712.74 488.867 2713.44 500.417 2714.84 511.15C2716.24 521.65 2718.58 530.75 2721.84 538.45C2725.11 546.15 2729.19 552.217 2734.09 556.65C2739.23 561.083 2745.53 563.3 2752.99 563.3C2766.53 563.3 2776.68 556.417 2783.44 542.65C2790.21 528.883 2793.59 506.833 2793.59 476.5C2793.59 464.6 2792.89 453.4 2791.49 442.9C2790.09 432.167 2787.76 422.95 2784.49 415.25C2781.46 407.317 2777.38 401.133 2772.24 396.7C2767.11 392.033 2760.69 389.7 2752.99 389.7C2726.16 389.7 2712.74 418.633 2712.74 476.5ZM2913.06 488.75L2916.56 532.85H2917.96L2921.81 488.05L2954.71 354H2985.51L3017.36 488.75L3021.21 532.85H3022.61L3026.46 488.05L3048.16 354H3092.96L3038.01 600.75H3006.86L2972.56 465.65L2968.01 427.5H2966.26L2962.06 466L2927.76 600.75H2895.21L2840.61 354H2889.26L2913.06 488.75ZM3107.94 354H3230.44V394.6H3152.04V454.8H3223.09V495.4H3152.04V558.4H3231.84V599H3107.94V354Z" fill="#E3DAE7"/>
</svg>
