<svg width="956" height="956" viewBox="0 0 956 956" fill="none" xmlns="http://www.w3.org/2000/svg">
<path d="M848.086 477.5C848.086 272.562 681.938 106.414 477 106.414" stroke="#123440" stroke-miterlimit="10"/>
<path d="M477 848.586C681.938 848.586 848.086 682.438 848.086 477.5" stroke="#123440" stroke-width="4" stroke-miterlimit="10"/>
<path d="M848.086 477.5C848.086 272.562 681.938 106.414 477 106.414" stroke="#123440" stroke-miterlimit="10"/>
<path d="M477 848.586C681.938 848.586 848.086 682.438 848.086 477.5" stroke="#123440" stroke-width="4" stroke-miterlimit="10"/>
<path d="M882.354 477.5C882.354 253.634 700.869 72.1499 477.004 72.1499" stroke="#123440" stroke-miterlimit="10"/>
<path d="M477.004 882.85C700.869 882.85 882.354 701.366 882.354 477.5" stroke="#123440" stroke-width="4" stroke-miterlimit="10"/>
<path d="M882.354 477.5C882.354 253.634 700.869 72.1499 477.004 72.1499" stroke="#123440" stroke-miterlimit="10"/>
<path d="M477.004 882.85C700.869 882.85 882.354 701.366 882.354 477.5" stroke="#123440" stroke-width="4" stroke-miterlimit="10"/>
<path d="M916.473 477.5C916.473 234.779 719.724 38.0298 477.002 38.0298" stroke="#123440" stroke-miterlimit="10"/>
<path d="M477.002 916.97C719.724 916.97 916.473 720.222 916.473 477.5" stroke="#123440" stroke-width="4" stroke-miterlimit="10"/>
<path d="M953.502 477.5C953.502 214.342 740.16 1 477.002 1" stroke="#123440" stroke-miterlimit="10"/>
<path d="M477.002 954C740.16 954 953.502 740.658 953.502 477.5" stroke="#123440" stroke-width="4" stroke-miterlimit="10"/>
<path d="M107.416 477.5C107.416 272.562 273.564 106.414 478.502 106.414" stroke="#123440" stroke-miterlimit="10"/>
<path d="M478.502 848.586C273.564 848.586 107.416 682.438 107.416 477.5" stroke="#123440" stroke-width="4" stroke-miterlimit="10"/>
<path d="M107.416 477.5C107.416 272.562 273.564 106.414 478.502 106.414" stroke="#123440" stroke-miterlimit="10"/>
<path d="M478.502 848.586C273.564 848.586 107.416 682.438 107.416 477.5" stroke="#123440" stroke-width="4" stroke-miterlimit="10"/>
<path d="M73.1484 477.5C73.1484 253.634 254.633 72.1499 478.498 72.1499" stroke="#123440" stroke-miterlimit="10"/>
<path d="M478.498 882.85C254.633 882.85 73.1484 701.366 73.1484 477.5" stroke="#123440" stroke-width="4" stroke-miterlimit="10"/>
<path d="M73.1484 477.5C73.1484 253.634 254.633 72.1499 478.498 72.1499" stroke="#123440" stroke-miterlimit="10"/>
<path d="M478.498 882.85C254.633 882.85 73.1484 701.366 73.1484 477.5" stroke="#123440" stroke-width="4" stroke-miterlimit="10"/>
<path d="M39.0293 477.5C39.0293 234.779 235.778 38.0298 478.5 38.0298" stroke="#123440" stroke-miterlimit="10"/>
<path d="M478.5 916.97C235.778 916.97 39.0293 720.222 39.0293 477.5" stroke="#123440" stroke-width="4" stroke-miterlimit="10"/>
<path d="M2 477.5C2 214.342 215.342 1 478.5 1" stroke="#123440" stroke-miterlimit="10"/>
<path d="M478.5 954C215.342 954 2 740.658 2 477.5" stroke="#123440" stroke-width="4" stroke-miterlimit="10"/>
</svg>
