<svg width="555" height="553" viewBox="0 0 555 553" fill="none" xmlns="http://www.w3.org/2000/svg">
<g opacity="0.3">
<path d="M62.8379 276C62.8379 157.725 158.726 61.8369 277.001 61.8369" stroke="#123440" stroke-miterlimit="10"/>
<path d="M277.001 490.163C158.726 490.163 62.8379 394.275 62.8379 276" stroke="#123440" stroke-width="4" stroke-miterlimit="10"/>
<path d="M62.8379 276C62.8379 157.725 158.726 61.8369 277.001 61.8369" stroke="#123440" stroke-miterlimit="10"/>
<path d="M277.001 490.163C158.726 490.163 62.8379 394.275 62.8379 276" stroke="#123440" stroke-width="4" stroke-miterlimit="10"/>
<path d="M43.0605 276C43.0605 146.802 147.8 42.0625 276.998 42.0625" stroke="#123440" stroke-miterlimit="10"/>
<path d="M276.998 509.938C147.8 509.938 43.0605 405.198 43.0605 276" stroke="#123440" stroke-width="4" stroke-miterlimit="10"/>
<path d="M43.0605 276C43.0605 146.802 147.8 42.0625 276.998 42.0625" stroke="#123440" stroke-miterlimit="10"/>
<path d="M276.998 509.938C147.8 509.938 43.0605 405.198 43.0605 276" stroke="#123440" stroke-width="4" stroke-miterlimit="10"/>
<path d="M23.3711 276C23.3711 135.919 136.92 22.3706 277 22.3706" stroke="#123440" stroke-miterlimit="10"/>
<path d="M277 529.629C136.92 529.629 23.3711 416.081 23.3711 276" stroke="#123440" stroke-width="4" stroke-miterlimit="10"/>
<path d="M2 276C2 124.125 125.125 1 277 1" stroke="#123440" stroke-miterlimit="10"/>
<path d="M277 551C125.125 551 2 427.875 2 276" stroke="#123440" stroke-width="4" stroke-miterlimit="10"/>
</g>
<g opacity="0.3">
<path d="M491.164 276C491.164 157.725 395.276 61.8369 277.001 61.8369" stroke="#123440" stroke-miterlimit="10"/>
<path d="M277.001 490.163C395.276 490.163 491.164 394.275 491.164 276" stroke="#123440" stroke-width="4" stroke-miterlimit="10"/>
<path d="M491.164 276C491.164 157.725 395.276 61.8369 277.001 61.8369" stroke="#123440" stroke-miterlimit="10"/>
<path d="M277.001 490.163C395.276 490.163 491.164 394.275 491.164 276" stroke="#123440" stroke-width="4" stroke-miterlimit="10"/>
<path d="M510.941 276C510.941 146.802 406.202 42.0625 277.004 42.0625" stroke="#123440" stroke-miterlimit="10"/>
<path d="M277.004 509.938C406.202 509.938 510.941 405.198 510.941 276" stroke="#123440" stroke-width="4" stroke-miterlimit="10"/>
<path d="M510.941 276C510.941 146.802 406.202 42.0625 277.004 42.0625" stroke="#123440" stroke-miterlimit="10"/>
<path d="M277.004 509.938C406.202 509.938 510.941 405.198 510.941 276" stroke="#123440" stroke-width="4" stroke-miterlimit="10"/>
<path d="M530.631 276C530.631 135.919 417.082 22.3706 277.002 22.3706" stroke="#123440" stroke-miterlimit="10"/>
<path d="M277.002 529.629C417.082 529.629 530.631 416.081 530.631 276" stroke="#123440" stroke-width="4" stroke-miterlimit="10"/>
<path d="M552.002 276C552.002 124.125 428.877 1 277.002 1" stroke="#123440" stroke-miterlimit="10"/>
<path d="M277.002 551C428.877 551 552.002 427.875 552.002 276" stroke="#123440" stroke-width="4" stroke-miterlimit="10"/>
</g>
</svg>
